<svg id="Capa_1" enable-background="new 0 0 512 512" height="512" viewBox="0 0 512 512" width="512" xmlns="http://www.w3.org/2000/svg"><path d="m497 512h-482c-8.284 0-15-6.716-15-15v-482c0-8.284 6.716-15 15-15h482c8.284 0 15 6.716 15 15v482c0 8.284-6.716 15-15 15z" fill="#00aced"/><path d="m497 0h-241v512h241c8.284 0 15-6.716 15-15v-482c0-8.284-6.716-15-15-15z" fill="#009cea"/><path d="m421.425 144.315-8.069 3.029s9.381-16.535 12.205-24.474c1.417-3.984-.721-6.09-3.203-7.2-2.62-1.172-5.637-.916-8.173.428-16.957 8.984-41.512 11.875-41.512 11.875-12.904-14.982-33.898-18.743-55.21-18.94-39.985-.37-73.512 31.144-74.186 71.125-.079 4.705.295 9.309 1.074 13.773-75.551-2.33-131.971-68.949-131.971-68.949-42.791 18.311-8.084 85.545-8.084 85.545-33.345 17.875 15.751 69.03 15.751 69.03-11.751 36.82 47.761 61.122 47.761 61.122-33.275 21.978-84.132 17.432-84.132 17.432-13.062 4.35-4.604 13.464-4.604 13.464 126.748 72.074 230.164-2.507 230.164-2.507 98.971-72.343 90.968-177.93 90.968-177.93l33.894-37.718c3.118-4.347.949-6.998-2-8.562-3.284-1.742-7.194-1.849-10.673-.543z" fill="#fff"/><path d="m432.097 144.858c-3.283-1.741-7.193-1.849-10.672-.543l-8.069 3.03s9.381-16.535 12.205-24.474c1.417-3.984-.721-6.09-3.204-7.2-2.62-1.171-5.637-.916-8.173.428-16.957 8.984-41.512 11.875-41.512 11.875-12.904-14.982-33.898-18.743-55.21-18.94-25.312-.234-48.022 12.318-61.463 31.697v252.802c33.213-10.032 53.236-24.465 53.236-24.465 98.971-72.343 90.968-177.93 90.968-177.93l33.894-37.718c3.119-4.347.949-6.998-2-8.562z" fill="#d7f2f9"/></svg>